# xmcd CD database file
#
# Track frame offsets:
#	150
#	10207
#	24882
#	36335
#	46110
#	60935
#	76365
#	90345
#	105902
#	118017
#	130722
#	143212
#	159522
#	170997
#
# Disc length: 2659 seconds
#
# Revision: 4
# Processed by: cddbd v1.4PL0 Copyright (c) Steve Scherf et al.
# Submitted via: CDex 1.50
#
DISCID=a20a610e
DTITLE=Billy Joe Shaver - The Earth Rolls On
DYEAR=2001
DGENRE=Country
TTITLE0=Love Is So Sweet
TTITLE1=Evergreen Fields
TTITLE2=Hard Headed Heart
TTITLE3=New York City Girl
TTITLE4=Restless Wind
TTITLE5=Sail Of My Soul
TTITLE6=You're Too Much For Me
TTITLE7=Blood Is Thicker Than Water
TTITLE8=Star In My Heart
TTITLE9=It's Not Over Till It's Over
TTITLE10=Hearts A'  Bustin'
TTITLE11=Leavin' Amarillo
TTITLE12=I Don't Seem To Fit Anywhere
TTITLE13=The Earth Rolls On
EXTD=YEAR: 2001
EXTT0=
EXTT1=
EXTT2=
EXTT3=
EXTT4=
EXTT5=
EXTT6=
EXTT7=
EXTT8=
EXTT9=
EXTT10=
EXTT11=
EXTT12=
EXTT13=
PLAYORDER=
